<svg xmlns="http://www.w3.org/2000/svg" width="900" height="560" viewBox="0 0 900 560">
<rect width="100%" height="100%" fill="#ffffff"/>
<text x="450.0" y="34.0" text-anchor="middle" font-family="Arial, sans-serif" font-size="24" font-weight="700" fill="#111827">Speedup: chunked exclusive</text>
<text x="450.0" y="58.0" text-anchor="middle" font-family="Arial, sans-serif" font-size="13" font-weight="400" fill="#4b5563">Generated from results.csv</text>
<line x1="82" y1="78" x2="82" y2="482" stroke="#111827" stroke-width="1.4"/>
<line x1="82" y1="482" x2="866" y2="482" stroke="#111827" stroke-width="1.4"/>
<line x1="82" y1="482.0" x2="866" y2="482.0" stroke="#e5e7eb" stroke-width="1"/>
<text x="70.0" y="486.0" text-anchor="end" font-family="Arial, sans-serif" font-size="12" font-weight="400" fill="#111827">0</text>
<line x1="82" y1="381.0" x2="866" y2="381.0" stroke="#e5e7eb" stroke-width="1"/>
<text x="70.0" y="385.0" text-anchor="end" font-family="Arial, sans-serif" font-size="12" font-weight="400" fill="#111827">0.5</text>
<line x1="82" y1="280.0" x2="866" y2="280.0" stroke="#e5e7eb" stroke-width="1"/>
<text x="70.0" y="284.0" text-anchor="end" font-family="Arial, sans-serif" font-size="12" font-weight="400" fill="#111827">1</text>
<line x1="82" y1="179.0" x2="866" y2="179.0" stroke="#e5e7eb" stroke-width="1"/>
<text x="70.0" y="183.0" text-anchor="end" font-family="Arial, sans-serif" font-size="12" font-weight="400" fill="#111827">1.5</text>
<line x1="82" y1="78.0" x2="866" y2="78.0" stroke="#e5e7eb" stroke-width="1"/>
<text x="70.0" y="82.0" text-anchor="end" font-family="Arial, sans-serif" font-size="12" font-weight="400" fill="#111827">2</text>
<line x1="82.0" y1="482" x2="82.0" y2="488" stroke="#111827" stroke-width="1"/>
<text x="82.0" y="510.0" text-anchor="middle" font-family="Arial, sans-serif" font-size="13" font-weight="400" fill="#111827">1</text>
<line x1="343.3" y1="482" x2="343.3" y2="488" stroke="#111827" stroke-width="1"/>
<text x="343.3" y="510.0" text-anchor="middle" font-family="Arial, sans-serif" font-size="13" font-weight="400" fill="#111827">2</text>
<line x1="604.7" y1="482" x2="604.7" y2="488" stroke="#111827" stroke-width="1"/>
<text x="604.7" y="510.0" text-anchor="middle" font-family="Arial, sans-serif" font-size="13" font-weight="400" fill="#111827">4</text>
<line x1="866.0" y1="482" x2="866.0" y2="488" stroke="#111827" stroke-width="1"/>
<text x="866.0" y="510.0" text-anchor="middle" font-family="Arial, sans-serif" font-size="13" font-weight="400" fill="#111827">8</text>
<text x="474.0" y="538.0" text-anchor="middle" font-family="Arial, sans-serif" font-size="14" font-weight="400" fill="#111827">OpenMP threads</text>
<text x="22" y="280.0" text-anchor="middle" font-family="Arial, sans-serif" font-size="14" fill="#111827" transform="rotate(-90 22 280.0)">Speedup</text>
<path d="M 82.0 312.6 L 343.3 411.9 L 604.7 422.5 L 866.0 467.6" fill="none" stroke="#2563eb" stroke-width="2.8" stroke-linejoin="round" stroke-linecap="round"/>
<circle cx="82.0" cy="312.6" r="4.4" fill="#2563eb" stroke="#ffffff" stroke-width="1.4"/>
<circle cx="343.3" cy="411.9" r="4.4" fill="#2563eb" stroke="#ffffff" stroke-width="1.4"/>
<circle cx="604.7" cy="422.5" r="4.4" fill="#2563eb" stroke="#ffffff" stroke-width="1.4"/>
<circle cx="866.0" cy="467.6" r="4.4" fill="#2563eb" stroke="#ffffff" stroke-width="1.4"/>
<line x1="98" y1="64" x2="122" y2="64" stroke="#2563eb" stroke-width="3"/>
<text x="130.0" y="68.0" text-anchor="start" font-family="Arial, sans-serif" font-size="12" font-weight="400" fill="#374151">n=10K</text>
<path d="M 82.0 282.7 L 343.3 308.1 L 604.7 307.6 L 866.0 365.8" fill="none" stroke="#dc2626" stroke-width="2.8" stroke-linejoin="round" stroke-linecap="round"/>
<circle cx="82.0" cy="282.7" r="4.4" fill="#dc2626" stroke="#ffffff" stroke-width="1.4"/>
<circle cx="343.3" cy="308.1" r="4.4" fill="#dc2626" stroke="#ffffff" stroke-width="1.4"/>
<circle cx="604.7" cy="307.6" r="4.4" fill="#dc2626" stroke="#ffffff" stroke-width="1.4"/>
<circle cx="866.0" cy="365.8" r="4.4" fill="#dc2626" stroke="#ffffff" stroke-width="1.4"/>
<line x1="253" y1="64" x2="277" y2="64" stroke="#dc2626" stroke-width="3"/>
<text x="285.0" y="68.0" text-anchor="start" font-family="Arial, sans-serif" font-size="12" font-weight="400" fill="#374151">n=100K</text>
<path d="M 82.0 281.6 L 343.3 302.3 L 604.7 310.4 L 866.0 318.7" fill="none" stroke="#16a34a" stroke-width="2.8" stroke-linejoin="round" stroke-linecap="round"/>
<circle cx="82.0" cy="281.6" r="4.4" fill="#16a34a" stroke="#ffffff" stroke-width="1.4"/>
<circle cx="343.3" cy="302.3" r="4.4" fill="#16a34a" stroke="#ffffff" stroke-width="1.4"/>
<circle cx="604.7" cy="310.4" r="4.4" fill="#16a34a" stroke="#ffffff" stroke-width="1.4"/>
<circle cx="866.0" cy="318.7" r="4.4" fill="#16a34a" stroke="#ffffff" stroke-width="1.4"/>
<line x1="408" y1="64" x2="432" y2="64" stroke="#16a34a" stroke-width="3"/>
<text x="440.0" y="68.0" text-anchor="start" font-family="Arial, sans-serif" font-size="12" font-weight="400" fill="#374151">n=1M</text>
<path d="M 82.0 280.1 L 343.3 298.3 L 604.7 302.6 L 866.0 306.4" fill="none" stroke="#9333ea" stroke-width="2.8" stroke-linejoin="round" stroke-linecap="round"/>
<circle cx="82.0" cy="280.1" r="4.4" fill="#9333ea" stroke="#ffffff" stroke-width="1.4"/>
<circle cx="343.3" cy="298.3" r="4.4" fill="#9333ea" stroke="#ffffff" stroke-width="1.4"/>
<circle cx="604.7" cy="302.6" r="4.4" fill="#9333ea" stroke="#ffffff" stroke-width="1.4"/>
<circle cx="866.0" cy="306.4" r="4.4" fill="#9333ea" stroke="#ffffff" stroke-width="1.4"/>
<line x1="563" y1="64" x2="587" y2="64" stroke="#9333ea" stroke-width="3"/>
<text x="595.0" y="68.0" text-anchor="start" font-family="Arial, sans-serif" font-size="12" font-weight="400" fill="#374151">n=10M</text>
</svg>
