<?xml version="1.0" encoding="UTF-8" standalone="no"?>
<!DOCTYPE svg PUBLIC "-//W3C//DTD SVG 1.1//EN"
 "http://www.w3.org/Graphics/SVG/1.1/DTD/svg11.dtd">
<!-- Generated by graphviz version 2.43.0 (0)
 -->
<!-- Title: chunked_call_graph Pages: 1 -->
<svg width="1046pt" height="306pt"
 viewBox="0.00 0.00 1046.00 305.50" xmlns="http://www.w3.org/2000/svg" xmlns:xlink="http://www.w3.org/1999/xlink">
<g id="graph0" class="graph" transform="scale(1 1) rotate(0) translate(4 301.5)">
<title>chunked_call_graph</title>
<polygon fill="white" stroke="transparent" points="-4,4 -4,-301.5 1042,-301.5 1042,4 -4,4"/>
<text text-anchor="middle" x="519" y="-277.5" font-family="Arial" font-size="20.00">Chunked OpenMP Prefix Scan Call Graph (gprof fallback)</text>
<!-- main -->
<g id="node1" class="node">
<title>main</title>
<path fill="#dbeafe" stroke="#334155" d="M141,-137C141,-137 12,-137 12,-137 6,-137 0,-131 0,-125 0,-125 0,-113 0,-113 0,-107 6,-101 12,-101 12,-101 141,-101 141,-101 147,-101 153,-107 153,-113 153,-113 153,-125 153,-125 153,-131 147,-137 141,-137"/>
<text text-anchor="middle" x="76.5" y="-122.4" font-family="Arial" font-size="12.00">main</text>
<text text-anchor="middle" x="76.5" y="-109.4" font-family="Arial" font-size="12.00">CLI + benchmark harness</text>
</g>
<!-- make_input -->
<g id="node2" class="node">
<title>make_input</title>
<path fill="#e0f2fe" stroke="#334155" d="M362.5,-267.5C362.5,-267.5 258.5,-267.5 258.5,-267.5 252.5,-267.5 246.5,-261.5 246.5,-255.5 246.5,-255.5 246.5,-232.5 246.5,-232.5 246.5,-226.5 252.5,-220.5 258.5,-220.5 258.5,-220.5 362.5,-220.5 362.5,-220.5 368.5,-220.5 374.5,-226.5 374.5,-232.5 374.5,-232.5 374.5,-255.5 374.5,-255.5 374.5,-261.5 368.5,-267.5 362.5,-267.5"/>
<text text-anchor="middle" x="310.5" y="-253.9" font-family="Arial" font-size="12.00">make_input(n)</text>
<text text-anchor="middle" x="310.5" y="-240.9" font-family="Arial" font-size="12.00">called 1x</text>
<text text-anchor="middle" x="310.5" y="-227.9" font-family="Arial" font-size="12.00">5.6% self in gprof run</text>
</g>
<!-- main&#45;&gt;make_input -->
<g id="edge1" class="edge">
<title>main&#45;&gt;make_input</title>
<path fill="none" stroke="#475569" d="M97.75,-137.12C121.79,-157.8 163.83,-191.41 205,-212 215.48,-217.24 226.98,-221.81 238.41,-225.74"/>
<polygon fill="#475569" stroke="#475569" points="237.82,-228.49 246.29,-228.35 239.58,-223.18 237.82,-228.49"/>
<text text-anchor="middle" x="179" y="-204" font-family="Arial" font-size="10.00">1x</text>
</g>
<!-- seq -->
<g id="node3" class="node">
<title>seq</title>
<path fill="#dcfce7" stroke="#334155" d="M372,-202.5C372,-202.5 249,-202.5 249,-202.5 243,-202.5 237,-196.5 237,-190.5 237,-190.5 237,-167.5 237,-167.5 237,-161.5 243,-155.5 249,-155.5 249,-155.5 372,-155.5 372,-155.5 378,-155.5 384,-161.5 384,-167.5 384,-167.5 384,-190.5 384,-190.5 384,-196.5 378,-202.5 372,-202.5"/>
<text text-anchor="middle" x="310.5" y="-188.9" font-family="Arial" font-size="12.00">sequential_scan_into(...)</text>
<text text-anchor="middle" x="310.5" y="-175.9" font-family="Arial" font-size="12.00">called 11x</text>
<text text-anchor="middle" x="310.5" y="-162.9" font-family="Arial" font-size="12.00">25.0% self</text>
</g>
<!-- main&#45;&gt;seq -->
<g id="edge2" class="edge">
<title>main&#45;&gt;seq</title>
<path fill="none" stroke="#475569" d="M147.11,-137C172.86,-143.66 202.27,-151.27 228.92,-158.16"/>
<polygon fill="#475569" stroke="#475569" points="228.27,-160.89 236.72,-160.18 229.68,-155.46 228.27,-160.89"/>
<text text-anchor="middle" x="179" y="-150" font-family="Arial" font-size="10.00">11x</text>
</g>
<!-- bench_lambda -->
<g id="node4" class="node">
<title>bench_lambda</title>
<path fill="#ede9fe" stroke="#334155" d="M404,-137C404,-137 217,-137 217,-137 211,-137 205,-131 205,-125 205,-125 205,-113 205,-113 205,-107 211,-101 217,-101 217,-101 404,-101 404,-101 410,-101 416,-107 416,-113 416,-113 416,-125 416,-125 416,-131 410,-137 404,-137"/>
<text text-anchor="middle" x="310.5" y="-122.4" font-family="Arial" font-size="12.00">benchmark lambda</text>
<text text-anchor="middle" x="310.5" y="-109.4" font-family="Arial" font-size="12.00">calls scan during warmups + repeats</text>
</g>
<!-- main&#45;&gt;bench_lambda -->
<g id="edge3" class="edge">
<title>main&#45;&gt;bench_lambda</title>
<path fill="none" stroke="#475569" d="M153.14,-119C167.09,-119 181.93,-119 196.69,-119"/>
<polygon fill="#475569" stroke="#475569" points="196.88,-121.8 204.88,-119 196.88,-116.2 196.88,-121.8"/>
<text text-anchor="middle" x="179" y="-122" font-family="Arial" font-size="10.00">1x</text>
</g>
<!-- median -->
<g id="node9" class="node">
<title>median</title>
<path fill="#f1f5f9" stroke="#334155" d="M604.5,-96.5C604.5,-96.5 519.5,-96.5 519.5,-96.5 513.5,-96.5 507.5,-90.5 507.5,-84.5 507.5,-84.5 507.5,-61.5 507.5,-61.5 507.5,-55.5 513.5,-49.5 519.5,-49.5 519.5,-49.5 604.5,-49.5 604.5,-49.5 610.5,-49.5 616.5,-55.5 616.5,-61.5 616.5,-61.5 616.5,-84.5 616.5,-84.5 616.5,-90.5 610.5,-96.5 604.5,-96.5"/>
<text text-anchor="middle" x="562" y="-82.9" font-family="Arial" font-size="12.00">median_of(times)</text>
<text text-anchor="middle" x="562" y="-69.9" font-family="Arial" font-size="12.00">called 7x</text>
<text text-anchor="middle" x="562" y="-56.9" font-family="Arial" font-size="12.00">post&#45;processing</text>
</g>
<!-- main&#45;&gt;median -->
<g id="edge7" class="edge">
<title>main&#45;&gt;median</title>
<path fill="none" stroke="#475569" d="M126.74,-100.97C150.12,-93.29 178.65,-85.15 205,-81 307.17,-64.92 427.85,-66.44 499.2,-69.43"/>
<polygon fill="#475569" stroke="#475569" points="499.11,-72.22 507.23,-69.78 499.36,-66.63 499.11,-72.22"/>
<text text-anchor="middle" x="310.5" y="-84" font-family="Arial" font-size="10.00">6x</text>
</g>
<!-- output -->
<g id="node10" class="node">
<title>output</title>
<path fill="#f1f5f9" stroke="#334155" d="M383.5,-36C383.5,-36 237.5,-36 237.5,-36 231.5,-36 225.5,-30 225.5,-24 225.5,-24 225.5,-12 225.5,-12 225.5,-6 231.5,0 237.5,0 237.5,0 383.5,0 383.5,0 389.5,0 395.5,-6 395.5,-12 395.5,-12 395.5,-24 395.5,-24 395.5,-30 389.5,-36 383.5,-36"/>
<text text-anchor="middle" x="310.5" y="-21.4" font-family="Arial" font-size="12.00">CSV / text output</text>
<text text-anchor="middle" x="310.5" y="-8.4" font-family="Arial" font-size="12.00">not inside timed scan section</text>
</g>
<!-- main&#45;&gt;output -->
<g id="edge10" class="edge">
<title>main&#45;&gt;output</title>
<path fill="none" stroke="#475569" d="M100.96,-100.86C119.21,-87.47 145.63,-69.62 171,-58 187.57,-50.41 205.93,-43.9 223.71,-38.47"/>
<polygon fill="#475569" stroke="#475569" points="224.97,-41.01 231.83,-36.05 223.37,-35.65 224.97,-41.01"/>
</g>
<!-- chunked -->
<g id="node5" class="node">
<title>chunked</title>
<path fill="#fef3c7" stroke="#334155" d="M644,-227.5C644,-227.5 480,-227.5 480,-227.5 474,-227.5 468,-221.5 468,-215.5 468,-215.5 468,-192.5 468,-192.5 468,-186.5 474,-180.5 480,-180.5 480,-180.5 644,-180.5 644,-180.5 650,-180.5 656,-186.5 656,-192.5 656,-192.5 656,-215.5 656,-215.5 656,-221.5 650,-227.5 644,-227.5"/>
<text text-anchor="middle" x="562" y="-213.9" font-family="Arial" font-size="12.00">openmp_chunked_scan_into(...)</text>
<text text-anchor="middle" x="562" y="-200.9" font-family="Arial" font-size="12.00">called 11x</text>
<text text-anchor="middle" x="562" y="-187.9" font-family="Arial" font-size="12.00">single OpenMP parallel region</text>
</g>
<!-- bench_lambda&#45;&gt;chunked -->
<g id="edge4" class="edge">
<title>bench_lambda&#45;&gt;chunked</title>
<path fill="none" stroke="#475569" d="M385.69,-137.04C395.97,-140.07 406.31,-143.41 416,-147 440.04,-155.91 444.28,-162.26 468,-172 472.61,-173.89 477.38,-175.77 482.21,-177.62"/>
<polygon fill="#475569" stroke="#475569" points="481.37,-180.29 489.85,-180.48 483.34,-175.05 481.37,-180.29"/>
<text text-anchor="middle" x="442" y="-166" font-family="Arial" font-size="10.00">11x</text>
</g>
<!-- verify -->
<g id="node8" class="node">
<title>verify</title>
<path fill="#f1f5f9" stroke="#334155" d="M599,-162.5C599,-162.5 525,-162.5 525,-162.5 519,-162.5 513,-156.5 513,-150.5 513,-150.5 513,-127.5 513,-127.5 513,-121.5 519,-115.5 525,-115.5 525,-115.5 599,-115.5 599,-115.5 605,-115.5 611,-121.5 611,-127.5 611,-127.5 611,-150.5 611,-150.5 611,-156.5 605,-162.5 599,-162.5"/>
<text text-anchor="middle" x="562" y="-148.9" font-family="Arial" font-size="12.00">verify_equal(...)</text>
<text text-anchor="middle" x="562" y="-135.9" font-family="Arial" font-size="12.00">called 1x</text>
<text text-anchor="middle" x="562" y="-122.9" font-family="Arial" font-size="12.00">after timing</text>
</g>
<!-- bench_lambda&#45;&gt;verify -->
<g id="edge9" class="edge">
<title>bench_lambda&#45;&gt;verify</title>
<path fill="none" stroke="#475569" d="M416.23,-127.39C446.55,-129.83 478.49,-132.39 504.64,-134.48"/>
<polygon fill="#475569" stroke="#475569" points="504.72,-137.3 512.91,-135.15 505.16,-131.72 504.72,-137.3"/>
<text text-anchor="middle" x="442" y="-132" font-family="Arial" font-size="10.00">1x</text>
</g>
<!-- bench_lambda&#45;&gt;median -->
<g id="edge8" class="edge">
<title>bench_lambda&#45;&gt;median</title>
<path fill="none" stroke="#475569" d="M409.39,-100.95C439.71,-95.36 472.25,-89.36 499.38,-84.36"/>
<polygon fill="#475569" stroke="#475569" points="499.89,-87.11 507.25,-82.91 498.88,-81.61 499.89,-87.11"/>
<text text-anchor="middle" x="442" y="-99" font-family="Arial" font-size="10.00">1x</text>
</g>
<!-- workspace -->
<g id="node6" class="node">
<title>workspace</title>
<path fill="#ffedd5" stroke="#334155" d="M977.5,-257.5C977.5,-257.5 793.5,-257.5 793.5,-257.5 787.5,-257.5 781.5,-251.5 781.5,-245.5 781.5,-245.5 781.5,-222.5 781.5,-222.5 781.5,-216.5 787.5,-210.5 793.5,-210.5 793.5,-210.5 977.5,-210.5 977.5,-210.5 983.5,-210.5 989.5,-216.5 989.5,-222.5 989.5,-222.5 989.5,-245.5 989.5,-245.5 989.5,-251.5 983.5,-257.5 977.5,-257.5"/>
<text text-anchor="middle" x="885.5" y="-243.9" font-family="Arial" font-size="12.00">ChunkedScanWorkspace::resize(...)</text>
<text text-anchor="middle" x="885.5" y="-230.9" font-family="Arial" font-size="12.00">called 12x</text>
<text text-anchor="middle" x="885.5" y="-217.9" font-family="Arial" font-size="12.00">reuses padded arrays</text>
</g>
<!-- chunked&#45;&gt;workspace -->
<g id="edge5" class="edge">
<title>chunked&#45;&gt;workspace</title>
<path fill="none" stroke="#475569" d="M656.42,-212.72C692.94,-216.13 735.12,-220.06 773.2,-223.61"/>
<polygon fill="#475569" stroke="#475569" points="773.04,-226.41 781.26,-224.37 773.56,-220.84 773.04,-226.41"/>
<text text-anchor="middle" x="694.5" y="-221" font-family="Arial" font-size="10.00">11x</text>
</g>
<!-- omp_region -->
<g id="node7" class="node">
<title>omp_region</title>
<path fill="#fee2e2" stroke="#334155" d="M1026,-192C1026,-192 745,-192 745,-192 739,-192 733,-186 733,-180 733,-180 733,-168 733,-168 733,-162 739,-156 745,-156 745,-156 1026,-156 1026,-156 1032,-156 1038,-162 1038,-168 1038,-168 1038,-180 1038,-180 1038,-186 1032,-192 1026,-192"/>
<text text-anchor="middle" x="885.5" y="-177.4" font-family="Arial" font-size="12.00">OpenMP worker region</text>
<text text-anchor="middle" x="885.5" y="-164.4" font-family="Arial" font-size="12.00">local chunk scan &#45;&gt; chunk sums &#45;&gt; offsets &#45;&gt; offset add</text>
</g>
<!-- chunked&#45;&gt;omp_region -->
<g id="edge6" class="edge">
<title>chunked&#45;&gt;omp_region</title>
<path fill="none" stroke="#475569" d="M656.42,-195.28C677.82,-193.29 701.15,-191.11 724.47,-188.93"/>
<polygon fill="#475569" stroke="#475569" points="725.01,-191.7 732.71,-188.16 724.49,-186.12 725.01,-191.7"/>
<text text-anchor="middle" x="694.5" y="-196" font-family="Arial" font-size="10.00">4 threads</text>
</g>
</g>
</svg>
